<?xml version="1.0" encoding="utf-8"?>
<!DOCTYPE svg PUBLIC "-//W3C//DTD SVG 1.1//EN" "http://www.w3.org/Graphics/SVG/1.1/DTD/svg11.dtd">
<svg version="1.1" xmlns="http://www.w3.org/2000/svg" xmlns:xlink="http://www.w3.org/1999/xlink" x="0px" y="0px" viewBox="0 0 256 256" enable-background="new 0 0 256 256" xml:space="preserve">
<g><g><g><path fill="#F5F5F5" d="M124.3,11.1c-3.5,2-5,5.6-3.7,9.4c0.8,2.4,1,2-3,4.8c-4.9,3.5-12.3,5.9-18.1,5.9c-2.7,0-3-0.2-3.4-2.7c-0.5-3.8-3.5-6.5-7.4-6.5c-7.6,0-10.7,8.3-5.2,13.6l2,1.8l4.9,18.2l5,18.2l-1.1,0.7c-6.7,4.2-7.7,13-2.3,18.4c3.7,3.7,3.8,3.7,27.5,3.7c22,0,22.3,0,23.5-2.4c0.8-1.5,0.5-2.9-0.9-4.4l-0.9-1h-20.8c-19.7,0-20.9,0-22.3-0.9c-2.7-1.7-2.3-6.1,0.7-6.8c2.6-0.6,3.1-0.8,4.1-1.7c0.6-0.6,1-1.5,1-2.3c0-1-7.9-31.1-9.9-37.7c-0.2-0.6,0.6-0.7,5.7-0.7c4.7,0,6.6-0.2,9.5-1.1c5.2-1.4,9.7-3.7,14.3-7.2c2.2-1.6,4-2.9,4.1-2.9c0.1,0,1.9,1.3,4.1,2.9c4.6,3.5,9.2,5.8,14.3,7.2c2.9,0.9,4.9,1.1,9.5,1.1c5,0,5.9,0.1,5.7,0.7c-0.1,0.4-2.2,7.9-4.6,16.7c-2.4,8.9-4.5,16.2-4.7,16.5c-0.2,0.3-7,0.5-18.9,0.5c-11.3,0-19,0.2-19.5,0.5c-1.2,0.7-1.9,3-1.3,4.7c0.9,2.7,1.4,2.7,24.1,2.7c19.8,0,20.6,0,21.4,0.9c1.2,1.2,1.5,2.8,1,4.3c-0.5,1.2-1.8,2-4.9,2.9c-0.9,0.3-1.7,1-2.2,2.1c-1.9,3.9-3.8,18.2-4.3,33.1c-0.6,18.4,1.5,27.1,12.3,49.7c5.6,11.8,7,15.8,7.1,20.1c0,2.8-0.1,3.6-1.3,5.7c-1.4,2.5-3.3,4.3-6.3,5.9c-1.5,0.8-3.1,0.9-23.3,1c-19.6,0.1-21.7,0.2-22.5,0.9c-1.4,1.2-1.8,2.9-1.2,4.3c1.1,2.7,0.5,2.7,32,2.7c23.9,0,29.1,0.1,30.4,0.6c2.4,1,5.8,4.4,7,7c1,2.1,1.1,3,1.1,9.1v6.8H128H72.9v-6.8c0-6.1,0.1-7,1.1-9.1c1.2-2.6,4.6-5.9,7-7c1.2-0.5,3.9-0.6,11-0.6h9.4l1.4-1.2c1.1-0.9,1.4-1.6,1.4-2.8c0-2.2-1.5-3.6-4.4-4.1c-4.1-0.6-7.7-3-9.7-6.8c-1.2-2.1-1.4-2.9-1.3-5.7c0-4.3,1.4-8.2,7-19.8c10.2-21.5,13.1-32.1,12.4-46.1c-0.4-8.3-1.6-20-2.2-21.6c-1.5-3.8-7.3-2.5-7.3,1.6c0,0.9,0.3,4.5,0.6,8c1.6,15.2,1.4,21.7-0.9,30.5c-1.6,6.1-3.3,10.3-9.2,23c-2.9,6.1-5.6,12.2-6.1,13.6c-1.2,3.2-2.4,9-2.4,11.3c0,2.7,1.2,7.1,2.8,9.5c0.8,1.2,1.4,2.3,1.4,2.3c0,0.1-1.2,0.3-2.6,0.4c-4.9,0.5-11.1,4.6-14.1,9.4c-2.7,4.2-3.1,6.6-3.1,17.2v9.8l1.3,1.3l1.3,1.3H128h60.2l1.3-1.4l1.4-1.4l-0.1-10.5l-0.1-10.5l-1.8-3.6c-3.2-6.4-9.3-11.1-15.2-11.7c-1.4-0.1-2.6-0.4-2.6-0.5s0.5-0.9,1.1-1.9c2.9-4.6,3.6-9,2.4-14.9c-1-4.7-2.8-9.3-7.8-19.8c-9.7-20.2-11.8-28.5-11.2-44.9c0.4-11.4,1.8-24.4,2.9-28c0.1-0.4,1.3-1.4,2.7-2.2c4.3-2.4,6.7-7.1,6-11.7c-0.4-2.8-2.7-6.5-4.9-8c-1-0.7-1.8-1.3-1.8-1.4c0-0.1,2.2-8.3,4.9-18.3l4.9-18l1.8-1.5c3.3-2.9,4-7.1,1.6-10.7c-3.8-5.7-13.1-3.5-14,3.3c-0.1,1.1-0.5,2.2-0.8,2.4c-0.8,0.6-4.3,0.4-8.3-0.3c-6.3-1.1-16.3-6.7-15.7-8.8c1.2-4.1,1.1-6.3-0.6-8.5c-1.3-1.8-4.2-3.3-6.3-3.3C126.9,10,125.4,10.5,124.3,11.1z"/></g></g></g>
</svg>